# xmcd
#
# Track frame offsets: 
#        150
#        13697
#        31646
#        47280
#        61407
#        76528
#        87557
#        102586
#        115508
#        128858
#        144839
#        157579
#        181904
#        195857
#        210288
#        225903
#        246935
#        259379
#        273569
#        290840
#        303457
#
# Disc length: 4250 seconds
#
# Revision: 0
# Processed by: cddbd v1.4PL0 Copyright (c) Steve Scherf et al.
# Submitted via: ExactAudioCopy v0.95a3
#
DISCID=08109815
DTITLE=Louis Armstrong - The Louis Armstrong Collection CD 1
DYEAR=1999
DGENRE=Jazz
TTITLE0=Ain't misbehaving
TTITLE1=back o' town blues
TTITLE2=black and blue
TTITLE3=Body and Soul
TTITLE4=by and by
TTITLE5=cheesecake
TTITLE6=confession (that I love you)
TTITLE7=dear old southland
TTITLE8=honeysucle rose
TTITLE9=i got rythm
TTITLE10=I can't give you anything but love
TTITLE11=I want a big butter and egg man
TTITLE12=I'm a ding dong daddy from dumas
TTITLE13=I'm in the market for you
TTITLE14=tonight
TTITLE15=jeepers creepers
TTITLE16=jellyroll blues
TTITLE17=just a gigolo
TTITLE18=la vee en rose
TTITLE19=lover
TTITLE20=mahogany hall blues stomp
EXTD=
EXTT0=
EXTT1=
EXTT2=
EXTT3=
EXTT4=
EXTT5=
EXTT6=
EXTT7=
EXTT8=
EXTT9=
EXTT10=
EXTT11=
EXTT12=
EXTT13=
EXTT14=
EXTT15=
EXTT16=
EXTT17=
EXTT18=
EXTT19=
EXTT20=
PLAYORDER=
